<svg width="28" height="28" viewBox="0 0 28 28" fill="none" xmlns="http://www.w3.org/2000/svg">
<g clip-path="url(#clip0)">
<path d="M17.625 0H4.20833C2.435 0 1 1.435 1 3.20833V21.2917C1 23.065 2.435 24.5 4.20833 24.5H11.8967C11.2667 23.17 10.9167 21.6883 10.9167 20.125C10.9167 18.7833 11.1733 17.5 11.6517 16.3217C11.605 16.3333 11.5583 16.3333 11.5 16.3333H5.66667C5.025 16.3333 4.5 15.8083 4.5 15.1667C4.5 14.525 5.025 14 5.66667 14H11.5C11.9433 14 12.34 14.2567 12.5267 14.63C13.285 13.4517 14.265 12.4483 15.42 11.6667H5.66667C5.025 11.6667 4.5 11.1417 4.5 10.5C4.5 9.85833 5.025 9.33333 5.66667 9.33333H16.1667C16.8083 9.33333 17.3333 9.85833 17.3333 10.5C17.3333 10.5583 17.3333 10.605 17.3217 10.6517C18.4067 10.2083 19.5967 9.95167 20.8333 9.92833V3.20833C20.8333 1.435 19.3983 0 17.625 0ZM10.3333 7H5.66667C5.025 7 4.5 6.475 4.5 5.83333C4.5 5.19167 5.025 4.66667 5.66667 4.66667H10.3333C10.975 4.66667 11.5 5.19167 11.5 5.83333C11.5 6.475 10.975 7 10.3333 7Z" fill="#FFC800"/>
<path d="M21.125 12.25C16.7827 12.25 13.25 15.7827 13.25 20.125C13.25 24.4673 16.7827 28 21.125 28C25.4673 28 29 24.4673 29 20.125C29 15.7827 25.4673 12.25 21.125 12.25ZM24.3333 21.2917H22.2917V23.3333C22.2917 23.9773 21.769 24.5 21.125 24.5C20.481 24.5 19.9583 23.9773 19.9583 23.3333V21.2917H17.9167C17.2727 21.2917 16.75 20.769 16.75 20.125C16.75 19.481 17.2727 18.9583 17.9167 18.9583H19.9583V16.9167C19.9583 16.2727 20.481 15.75 21.125 15.75C21.769 15.75 22.2917 16.2727 22.2917 16.9167V18.9583H24.3333C24.9773 18.9583 25.5 19.481 25.5 20.125C25.5 20.769 24.9773 21.2917 24.3333 21.2917Z" fill="#FFC800"/>
</g>
<defs>
<clipPath id="clip0">
<rect width="28" height="28" fill="white"/>
</clipPath>
</defs>
</svg>
