<svg width="29" height="30" viewBox="0 0 29 30" fill="none" xmlns="http://www.w3.org/2000/svg">
<path d="M13.7693 27.6562H4.9851C3.63965 27.6562 2.54504 26.6048 2.54504 25.3125V4.6875C2.54504 3.39516 3.63965 2.34375 4.9851 2.34375H19.9848C21.3302 2.34375 22.4248 3.39516 22.4248 4.6875V15.7617C22.4248 16.4089 22.971 16.9336 23.6449 16.9336C24.3187 16.9336 24.8649 16.4089 24.8649 15.7617V4.6875C24.8649 2.10281 22.6757 0 19.9848 0H4.9851C2.2942 0 0.10498 2.10281 0.10498 4.6875V25.3125C0.10498 27.8972 2.2942 30 4.9851 30H13.7693C14.4431 30 14.9894 29.4754 14.9894 28.8281C14.9894 28.1809 14.4432 27.6562 13.7693 27.6562Z" fill="black"/>
<path d="M18.771 9.90234H11.0848C10.411 9.90234 9.86475 10.427 9.86475 11.0742C9.86475 11.7214 10.411 12.2461 11.0848 12.2461H18.771C19.4448 12.2461 19.991 11.7214 19.991 11.0742C19.991 10.427 19.4449 9.90234 18.771 9.90234Z" fill="black"/>
<path d="M11.0848 19.2773C10.411 19.2773 9.86475 19.802 9.86475 20.4492C9.86475 21.0964 10.411 21.6211 11.0848 21.6211H12.9165C13.5904 21.6211 14.1366 21.0964 14.1366 20.4492C14.1366 19.802 13.5904 19.2773 12.9165 19.2773H11.0848Z" fill="black"/>
<path d="M18.771 5.21484H11.0848C10.411 5.21484 9.86475 5.73949 9.86475 6.38672C9.86475 7.03395 10.411 7.55859 11.0848 7.55859H18.771C19.4448 7.55859 19.991 7.03395 19.991 6.38672C19.991 5.73949 19.4449 5.21484 18.771 5.21484Z" fill="black"/>
<path d="M19.991 15.7617C19.991 15.1145 19.4448 14.5898 18.771 14.5898H11.0848C10.411 14.5898 9.86475 15.1145 9.86475 15.7617C9.86475 16.4089 10.411 16.9336 11.0848 16.9336H18.771C19.4449 16.9336 19.991 16.4089 19.991 15.7617Z" fill="black"/>
<path d="M6.32696 16.9336C7.00077 16.9336 7.54699 16.4089 7.54699 15.7617C7.54699 15.1145 7.00077 14.5898 6.32696 14.5898C5.65316 14.5898 5.10693 15.1145 5.10693 15.7617C5.10693 16.4089 5.65316 16.9336 6.32696 16.9336Z" fill="black"/>
<path d="M26.9847 20.3417C26.2789 19.6553 25.312 19.2773 24.2623 19.2773C23.2178 19.2773 22.3157 19.5964 21.6397 20.1915C20.964 19.5964 20.0618 19.2773 19.0174 19.2773C17.9677 19.2773 17.0009 19.6553 16.295 20.3418C15.5726 21.0441 15.1748 22.0317 15.1748 23.1225C15.1748 25.4211 17.2077 26.877 18.841 28.0467C19.5839 28.5786 20.2855 29.0811 20.6895 29.5631C20.9211 29.8394 21.2705 30.0001 21.6398 30.0001C22.0091 30.0001 22.3585 29.8393 22.5901 29.5631C22.9941 29.0811 23.6957 28.5786 24.4386 28.0467C26.0721 26.8769 28.1049 25.4211 28.1049 23.1224C28.1048 22.0317 27.707 21.0441 26.9847 20.3417ZM22.9801 26.1676C22.526 26.4928 22.0635 26.824 21.6397 27.1738C21.216 26.824 20.7535 26.4928 20.2994 26.1676C18.9796 25.2224 17.6148 24.245 17.6148 23.1224C17.6148 22.1964 18.1522 21.6211 19.0172 21.6211C19.7394 21.6211 20.0203 21.9066 20.1689 22.1213C20.3657 22.4055 20.4165 22.7215 20.4239 22.7744C20.4602 23.3944 20.9922 23.8802 21.6397 23.8802C22.2873 23.8802 22.8193 23.3945 22.8556 22.7745C22.8629 22.7217 22.9138 22.4056 23.1106 22.1213C23.2592 21.9066 23.5402 21.6211 24.2623 21.6211C25.1273 21.6211 25.6647 22.1964 25.6647 23.1224C25.6647 24.2451 24.3 25.2224 22.9801 26.1676Z" fill="black"/>
<path d="M6.32696 7.55859C7.00077 7.55859 7.54699 7.03393 7.54699 6.38672C7.54699 5.73951 7.00077 5.21484 6.32696 5.21484C5.65316 5.21484 5.10693 5.73951 5.10693 6.38672C5.10693 7.03393 5.65316 7.55859 6.32696 7.55859Z" fill="black"/>
<path d="M6.32696 12.2461C7.00077 12.2461 7.54699 11.7214 7.54699 11.0742C7.54699 10.427 7.00077 9.90234 6.32696 9.90234C5.65316 9.90234 5.10693 10.427 5.10693 11.0742C5.10693 11.7214 5.65316 12.2461 6.32696 12.2461Z" fill="black"/>
<path d="M6.32696 21.6211C7.00077 21.6211 7.54699 21.0964 7.54699 20.4492C7.54699 19.802 7.00077 19.2773 6.32696 19.2773C5.65316 19.2773 5.10693 19.802 5.10693 20.4492C5.10693 21.0964 5.65316 21.6211 6.32696 21.6211Z" fill="black"/>
</svg>
