<svg width="22" height="19" viewBox="0 0 22 19" fill="none" xmlns="http://www.w3.org/2000/svg">
<circle cx="9.5" cy="9.5" r="9.5" fill="#FFD968"/>
<path d="M21.3971 17.9723H19.6488C19.6488 15.1065 17.1749 12.7759 14.1319 12.7759C11.089 12.7759 8.616 15.1074 8.616 17.9723H6.86768C6.86768 14.1688 10.1274 11.0771 14.1328 11.0771C18.1373 11.0771 21.3971 14.1688 21.3971 17.9723Z" fill="#010002"/>
<path d="M14.1328 10.525C11.4902 10.525 9.33887 8.43389 9.33887 5.86627C9.33799 3.2978 11.4893 1.20752 14.1328 1.20752C16.7771 1.20752 18.9284 3.29695 18.9284 5.86627C18.9284 8.43559 16.7771 10.525 14.1328 10.525ZM14.1328 2.90624C12.4526 2.90624 11.0863 4.2338 11.0863 5.86627C11.0863 7.49874 12.4526 8.8263 14.1328 8.8263C15.8138 8.8263 17.1801 7.49874 17.1801 5.86627C17.1801 4.2338 15.812 2.90624 14.1328 2.90624Z" fill="#010002"/>
</svg>
