<svg width="22" height="19" viewBox="0 0 22 19" fill="none" xmlns="http://www.w3.org/2000/svg">
<circle cx="9.5" cy="9.5" r="9.5" fill="#FFD968"/>
<path d="M13.9387 15.822H9.3648C8.66423 15.822 8.09427 15.2745 8.09427 14.6016V3.86216C8.09427 3.18924 8.66423 2.64177 9.3648 2.64177H17.1751C17.8757 2.64177 18.4456 3.18924 18.4456 3.86216V9.62849C18.4456 9.9655 18.7301 10.2387 19.0809 10.2387C19.4318 10.2387 19.7162 9.9655 19.7162 9.62849V3.86216C19.7162 2.51632 18.5763 1.42139 17.1751 1.42139H9.3648C7.96366 1.42139 6.82373 2.51632 6.82373 3.86216V14.6016C6.82373 15.9474 7.96366 17.0423 9.3648 17.0423H13.9387C14.2896 17.0423 14.574 16.7692 14.574 16.4321C14.574 16.0951 14.2896 15.822 13.9387 15.822Z" fill="black"/>
<path d="M16.5432 6.57764H12.541C12.1902 6.57764 11.9058 6.85082 11.9058 7.18783C11.9058 7.52484 12.1902 7.79802 12.541 7.79802H16.5432C16.8941 7.79802 17.1785 7.52484 17.1785 7.18783C17.1785 6.85082 16.8941 6.57764 16.5432 6.57764Z" fill="black"/>
<path d="M12.541 11.4595C12.1902 11.4595 11.9058 11.7327 11.9058 12.0697C11.9058 12.4067 12.1902 12.6799 12.541 12.6799H13.4948C13.8457 12.6799 14.1301 12.4067 14.1301 12.0697C14.1301 11.7327 13.8457 11.4595 13.4948 11.4595H12.541Z" fill="black"/>
<path d="M16.5432 4.13721H12.541C12.1902 4.13721 11.9058 4.41039 11.9058 4.7474C11.9058 5.08441 12.1902 5.35759 12.541 5.35759H16.5432C16.8941 5.35759 17.1785 5.08441 17.1785 4.7474C17.1785 4.41039 16.8941 4.13721 16.5432 4.13721Z" fill="black"/>
<path d="M17.1785 9.62875C17.1785 9.29174 16.8941 9.01855 16.5432 9.01855H12.541C12.1902 9.01855 11.9058 9.29174 11.9058 9.62875C11.9058 9.96576 12.1902 10.2389 12.541 10.2389H16.5432C16.8941 10.2389 17.1785 9.96576 17.1785 9.62875Z" fill="black"/>
<path d="M10.0635 10.2389C10.4143 10.2389 10.6988 9.96575 10.6988 9.62875C10.6988 9.29175 10.4143 9.01855 10.0635 9.01855C9.71264 9.01855 9.42822 9.29175 9.42822 9.62875C9.42822 9.96575 9.71264 10.2389 10.0635 10.2389Z" fill="black"/>
<path d="M20.8198 12.0137C20.4523 11.6563 19.9489 11.4595 19.4023 11.4595C18.8584 11.4595 18.3887 11.6256 18.0367 11.9355C17.6848 11.6256 17.2151 11.4595 16.6712 11.4595C16.1247 11.4595 15.6213 11.6563 15.2537 12.0137C14.8775 12.3794 14.6704 12.8937 14.6704 13.4616C14.6704 14.6585 15.7289 15.4166 16.5794 16.0256C16.9662 16.3026 17.3315 16.5643 17.5419 16.8153C17.6625 16.9591 17.8444 17.0428 18.0367 17.0428C18.229 17.0428 18.4109 16.9591 18.5315 16.8153C18.7419 16.5643 19.1072 16.3026 19.4941 16.0256C20.3446 15.4165 21.4031 14.6585 21.4031 13.4616C21.403 12.8936 21.1959 12.3794 20.8198 12.0137ZM18.7346 15.0472C18.4982 15.2166 18.2573 15.389 18.0367 15.5711C17.816 15.389 17.5752 15.2166 17.3388 15.0472C16.6516 14.5551 15.9409 14.0461 15.9409 13.4616C15.9409 12.9794 16.2207 12.6799 16.6712 12.6799C17.0472 12.6799 17.1935 12.8285 17.2708 12.9403C17.3733 13.0883 17.3997 13.2528 17.4036 13.2804C17.4225 13.6032 17.6995 13.8562 18.0367 13.8562C18.3739 13.8562 18.6509 13.6033 18.6698 13.2804C18.6736 13.2529 18.7001 13.0884 18.8025 12.9403C18.8799 12.8285 19.0263 12.6799 19.4023 12.6799C19.8527 12.6799 20.1325 12.9794 20.1325 13.4616C20.1325 14.0462 19.4219 14.5551 18.7346 15.0472Z" fill="black"/>
<path d="M10.0635 5.35759C10.4143 5.35759 10.6988 5.0844 10.6988 4.7474C10.6988 4.4104 10.4143 4.13721 10.0635 4.13721C9.71264 4.13721 9.42822 4.4104 9.42822 4.7474C9.42822 5.0844 9.71264 5.35759 10.0635 5.35759Z" fill="black"/>
<path d="M10.0635 7.79802C10.4143 7.79802 10.6988 7.52483 10.6988 7.18783C10.6988 6.85083 10.4143 6.57764 10.0635 6.57764C9.71264 6.57764 9.42822 6.85083 9.42822 7.18783C9.42822 7.52483 9.71264 7.79802 10.0635 7.79802Z" fill="black"/>
<path d="M10.0635 12.6799C10.4143 12.6799 10.6988 12.4067 10.6988 12.0697C10.6988 11.7327 10.4143 11.4595 10.0635 11.4595C9.71264 11.4595 9.42822 11.7327 9.42822 12.0697C9.42822 12.4067 9.71264 12.6799 10.0635 12.6799Z" fill="black"/>
</svg>
