<svg width="21" height="19" viewBox="0 0 21 19" fill="none" xmlns="http://www.w3.org/2000/svg">
<circle cx="9.5" cy="9.5" r="9.5" fill="#FFD968"/>
<path d="M20.0463 6.73704H18.3285L15.9374 2.26326C15.8084 2.02187 15.5064 1.92977 15.2626 2.05757C15.0189 2.18537 14.9259 2.4847 15.0549 2.72609L17.1986 6.73704H7.79849L9.94217 2.72609C10.0712 2.4847 9.97822 2.18537 9.73454 2.05757C9.49092 1.92981 9.18869 2.02187 9.05968 2.26326L6.66862 6.73704H4.95373C4.42785 6.73704 4 7.16086 4 7.68179V8.78046C4 9.27947 4.39263 9.68908 4.88795 9.72271L6.56294 16.6211C6.6169 16.8433 6.81761 17 7.04837 17H17.9483C18.179 17 18.3796 16.8434 18.4337 16.6213L20.1126 9.72265C20.6077 9.68875 21 9.27927 21 8.78046V7.68179C21 7.16086 20.5722 6.73704 20.0463 6.73704ZM4.99856 7.72621H20.0014V8.73602H4.99856V7.72621ZM18.4407 12.3718H16.2547L16.5883 9.72519H19.0848L18.4407 12.3718ZM13 16.0108V13.361H15.1237L14.7898 16.0108H13ZM10.2115 16.0108L9.87723 13.361H12.0014V16.0108H10.2115ZM5.91561 9.72519H8.41227L8.74616 12.3718H6.55825L5.91561 9.72519ZM9.41856 9.72519H12.0014V12.3718H9.75244L9.41856 9.72519ZM13 12.3718V9.72519H15.582L15.2484 12.3718H13ZM6.7984 13.361H8.87091L9.2052 16.0108H7.44181L6.7984 13.361ZM17.5551 16.0108H15.7961L16.1301 13.361H18.2L17.5551 16.0108Z" fill="black"/>
</svg>
