<svg width="24" height="19" viewBox="0 0 24 19" fill="none" xmlns="http://www.w3.org/2000/svg">
<circle cx="9.5" cy="9.5" r="9.5" fill="#FFD968"/>
<g clip-path="url(#clip0)">
<path d="M23.4368 10.0312H16.312C16.0015 10.0312 15.7495 9.82123 15.7495 9.56249C15.7495 9.30374 16.0015 9.09375 16.312 9.09375H23.4368C23.7473 9.09375 23.9993 9.30374 23.9993 9.56249C23.9993 9.82123 23.7473 10.0312 23.4368 10.0312Z" fill="black"/>
<path d="M20.6244 12.3754C20.4803 12.3754 20.3364 12.3298 20.2268 12.238C20.0071 12.0548 20.0071 11.7579 20.2268 11.5748L22.6418 9.56247L20.2268 7.54997C20.0071 7.36687 20.0071 7.07002 20.2268 6.88692C20.4467 6.70371 20.8029 6.70371 21.0226 6.88692L23.835 9.2306C24.0547 9.4137 24.0547 9.71055 23.835 9.89365L21.0226 12.2373C20.9123 12.3298 20.7684 12.3754 20.6244 12.3754Z" fill="black"/>
<path d="M11.9999 18.0005C11.8393 18.0005 11.687 17.9817 11.5349 17.9424L7.02142 16.6893C6.40731 16.5105 6 16.0337 6 15.5006V4.25098C6 3.56161 6.67275 3.00098 7.5 3.00098C7.66039 3.00098 7.81269 3.01974 7.96498 3.05911L12.4783 4.3122C13.0926 4.49095 13.4997 4.96781 13.4997 5.50086V16.7505C13.4997 17.4399 12.8271 18.0005 11.9999 18.0005ZM7.5 3.93845C7.29374 3.93845 7.12496 4.07909 7.12496 4.25098V15.5006C7.12496 15.6337 7.23222 15.7574 7.3852 15.8018L11.8775 17.0493C11.9098 17.058 11.9518 17.063 11.9999 17.063C12.2061 17.063 12.3748 16.9224 12.3748 16.7505V5.50086C12.3748 5.36777 12.2675 5.24406 12.1145 5.19966L7.62222 3.95218C7.58995 3.94348 7.54793 3.93845 7.5 3.93845Z" fill="black"/>
<path d="M17.4371 8.00135C17.1266 8.00135 16.8746 7.79135 16.8746 7.53261V4.7202C16.8746 4.28957 16.454 3.93894 15.9372 3.93894H7.49998C7.18949 3.93894 6.9375 3.72894 6.9375 3.4702C6.9375 3.21146 7.18949 3.00146 7.49998 3.00146H15.9372C17.075 3.00146 17.9996 3.77209 17.9996 4.7202V7.53261C17.9996 7.79135 17.7476 8.00135 17.4371 8.00135Z" fill="black"/>
<path d="M15.937 16.1249H12.937C12.6265 16.1249 12.3745 15.9149 12.3745 15.6561C12.3745 15.3974 12.6265 15.1874 12.937 15.1874H15.937C16.4537 15.1874 16.8744 14.8368 16.8744 14.4061V11.5937C16.8744 11.335 17.1264 11.125 17.4369 11.125C17.7473 11.125 17.9993 11.335 17.9993 11.5937V14.4061C17.9993 15.3543 17.0747 16.1249 15.937 16.1249Z" fill="black"/>
</g>
<defs>
<clipPath id="clip0">
<rect width="18" height="15" fill="white" transform="translate(6 3)"/>
</clipPath>
</defs>
</svg>
