<svg width="60" height="79" viewBox="0 0 60 79" fill="none" xmlns="http://www.w3.org/2000/svg">
<path d="M52.5 29.625H50V19.75C50 8.85787 41.03 0 30 0C18.97 0 10 8.85787 10 19.75V29.625H7.5C3.36667 29.625 0 32.9463 0 37.0312V71.5938C0 75.6787 3.36667 79 7.5 79H52.5C56.6333 79 60 75.6787 60 71.5938V37.0312C60 32.9463 56.6333 29.625 52.5 29.625ZM16.6667 19.75C16.6667 12.4886 22.6467 6.58333 30 6.58333C37.3533 6.58333 43.3333 12.4886 43.3333 19.75V29.625H16.6667V19.75ZM33.3333 55.0433V62.5417C33.3333 64.3587 31.8433 65.8333 30 65.8333C28.1567 65.8333 26.6667 64.3587 26.6667 62.5417V55.0433C24.6833 53.901 23.3333 51.801 23.3333 49.375C23.3333 45.7443 26.3233 42.7917 30 42.7917C33.6767 42.7917 36.6667 45.7443 36.6667 49.375C36.6667 51.801 35.3167 53.901 33.3333 55.0433Z" fill="#FFC800"/>
</svg>
