<svg width="35" height="31" viewBox="0 0 35 31" fill="none" xmlns="http://www.w3.org/2000/svg">
<path d="M33.0365 10.3129H29.4998L24.5771 1.36538C24.3114 0.882598 23.6895 0.698414 23.1876 0.954016C22.6859 1.20962 22.4945 1.80826 22.7602 2.29104L27.1736 10.3129H7.82043L12.2339 2.29104C12.4995 1.80826 12.3081 1.20962 11.8064 0.954016C11.3048 0.69848 10.6826 0.882598 10.417 1.36538L5.49422 10.3129H1.96355C0.880868 10.3129 0 11.1606 0 12.2025V14.3998C0 15.3978 0.808365 16.217 1.82814 16.2843L5.27664 30.081C5.38773 30.5256 5.80095 30.8389 6.27606 30.8389H28.7172C29.1921 30.8389 29.6052 30.5258 29.7164 30.0816L33.173 16.2842C34.1923 16.2164 35 15.3974 35 14.3998V12.2025C35 11.1606 34.1192 10.3129 33.0365 10.3129ZM2.05586 12.2913H32.9441V14.3109H2.05586V12.2913ZM29.7309 21.5826H25.2303L25.9171 16.2892H31.057L29.7309 21.5826ZM18.5293 28.8605V23.5609H22.9018L22.2142 28.8605H18.5293ZM12.7884 28.8605L12.1002 23.5609H16.4735V28.8605H12.7884ZM3.94389 16.2892H9.0841L9.77151 21.5826H5.26698L3.94389 16.2892ZM11.1559 16.2892H16.4735V21.5826H11.8433L11.1559 16.2892ZM18.5293 21.5826V16.2892H23.8453L23.1585 21.5826H18.5293ZM5.76141 23.5609H10.0284L10.7166 28.8605H7.08607L5.76141 23.5609ZM27.9076 28.8605H24.286L24.9736 23.5609H29.2352L27.9076 28.8605Z" fill="black"/>
</svg>
