<svg width="19" height="25" viewBox="0 0 19 25" fill="none" xmlns="http://www.w3.org/2000/svg">
<path d="M16.625 9.375H15.8333V6.25C15.8333 2.80312 12.9928 0 9.5 0C6.00717 0 3.16667 2.80312 3.16667 6.25V9.375H2.375C1.06611 9.375 0 10.426 0 11.7188V22.6562C0 23.949 1.06611 25 2.375 25H16.625C17.9339 25 19 23.949 19 22.6562V11.7188C19 10.426 17.9339 9.375 16.625 9.375ZM5.27778 6.25C5.27778 3.95208 7.17144 2.08333 9.5 2.08333C11.8286 2.08333 13.7222 3.95208 13.7222 6.25V9.375H5.27778V6.25ZM10.5556 17.4187V19.7917C10.5556 20.3667 10.0837 20.8333 9.5 20.8333C8.91628 20.8333 8.44444 20.3667 8.44444 19.7917V17.4187C7.81639 17.0573 7.38889 16.3927 7.38889 15.625C7.38889 14.476 8.33572 13.5417 9.5 13.5417C10.6643 13.5417 11.6111 14.476 11.6111 15.625C11.6111 16.3927 11.1836 17.0573 10.5556 17.4187Z" fill="#FFC800"/>
</svg>
