<svg width="22" height="22" viewBox="0 0 22 22" fill="none" xmlns="http://www.w3.org/2000/svg">
<path d="M11 22C4.93423 22 0 17.0658 0 11C0 4.93423 4.93423 0 11 0C17.0658 0 22 4.93509 22 11C22 17.0649 17.0658 22 11 22ZM11 1.7041C5.8749 1.7041 1.7041 5.87404 1.7041 11C1.7041 16.126 5.8749 20.2959 11 20.2959C16.1251 20.2959 20.2959 16.126 20.2959 11C20.2959 5.87404 16.126 1.7041 11 1.7041Z" fill="#262626"/>
<path d="M13.4099 14.6914L11 12.2814L8.58999 14.6914C8.25742 15.024 7.71817 15.0246 7.38499 14.6914C7.0518 14.3582 7.05241 13.819 7.38498 13.4864L9.79494 11.0764L7.38499 8.66646C7.0518 8.33327 7.05241 7.79403 7.38499 7.46145C7.71756 7.12887 8.25681 7.12826 8.58999 7.46145L11 9.87141L13.4099 7.46145C13.7425 7.12887 14.2817 7.12826 14.6149 7.46145C14.9481 7.79463 14.9475 8.33388 14.6149 8.66646L12.205 11.0764L14.6149 13.4864C14.9481 13.8196 14.9475 14.3588 14.6149 14.6914C14.2823 15.024 13.7431 15.0246 13.4099 14.6914Z" fill="#262626"/>
</svg>
