<svg width="30" height="30" viewBox="0 0 30 30" fill="none" xmlns="http://www.w3.org/2000/svg">
<g clip-path="url(#clip0)">
<path d="M23.9235 5.77197L22.0109 27.5674H7.98867L6.07641 5.77197L3.65332 5.98437L5.60051 28.1751C5.70299 29.1979 6.59045 29.9998 7.62141 29.9998H22.3782C23.4087 29.9998 24.2965 29.1983 24.4007 28.1605L26.3467 5.98437L23.9235 5.77197Z" fill="#FFC800"/>
<path d="M19.4596 0H10.5407C9.42299 0 8.51367 0.909316 8.51367 2.02705V5.87842H10.9461V2.4324H19.0542V5.87836H21.4866V2.02699C21.4867 0.909316 20.5774 0 19.4596 0Z" fill="#FFC800"/>
<path d="M27.9732 4.66211H2.02727C1.35549 4.66211 0.811035 5.20656 0.811035 5.87834C0.811035 6.55012 1.35549 7.09457 2.02727 7.09457H27.9732C28.645 7.09457 29.1895 6.55012 29.1895 5.87834C29.1895 5.20656 28.6449 4.66211 27.9732 4.66211Z" fill="#FFC800"/>
</g>
<defs>
<clipPath id="clip0">
<rect width="30" height="30" fill="white"/>
</clipPath>
</defs>
</svg>
