<svg width="30" height="30" viewBox="0 0 30 30" fill="none" xmlns="http://www.w3.org/2000/svg">
<g clip-path="url(#clip0)">
<path d="M23.9238 5.77197L22.0111 27.5674H7.98892L6.07665 5.77197L3.65356 5.98437L5.60075 28.1751C5.70323 29.1979 6.59069 29.9998 7.62165 29.9998H22.3784C23.409 29.9998 24.2968 29.1983 24.401 28.1605L26.3469 5.98437L23.9238 5.77197Z" fill="#333333"/>
<path d="M19.4594 0H10.5405C9.42274 0 8.51343 0.909316 8.51343 2.02705V5.87842H10.9458V2.4324H19.0539V5.87836H21.4863V2.02699C21.4864 0.909316 20.5771 0 19.4594 0Z" fill="#333333"/>
<path d="M27.9729 4.66211H2.02702C1.35524 4.66211 0.810791 5.20656 0.810791 5.87834C0.810791 6.55012 1.35524 7.09457 2.02702 7.09457H27.973C28.6448 7.09457 29.1892 6.55012 29.1892 5.87834C29.1892 5.20656 28.6447 4.66211 27.9729 4.66211Z" fill="#333333"/>
</g>
<defs>
<clipPath id="clip0">
<rect width="30" height="30" fill="white"/>
</clipPath>
</defs>
</svg>
