<svg width="26" height="26" viewBox="0 0 26 26" fill="none" xmlns="http://www.w3.org/2000/svg">
<path d="M15.9093 3.65809L3.72266 15.8447L10.1618 22.2839L22.3484 10.0972L15.9093 3.65809Z" fill="#FFC800"/>
<path d="M25.6122 5.18154L20.8566 0.358474C20.3844 -0.113714 19.6424 -0.113714 19.2039 0.324747C19.2039 0.324747 19.2039 0.324747 19.1702 0.358474L17.0791 2.44959L23.5211 8.92532L25.6122 6.8342C26.0844 6.36201 26.0844 5.62 25.6122 5.18154Z" fill="#FFC800"/>
<path d="M2.77832 17.2559L0.113828 24.4061C-0.122267 25.0132 0.181283 25.6878 0.788382 25.9239C1.0582 26.0251 1.36175 26.0251 1.63158 25.9239L8.78186 23.2257L2.77832 17.2559Z" fill="#FFC800"/>
</svg>
