<svg width="26" height="26" viewBox="0 0 26 26" fill="none" xmlns="http://www.w3.org/2000/svg">
<g clip-path="url(#clip0)">
<path d="M15.9091 3.65809L3.72241 15.8447L10.1616 22.2839L22.3482 10.0972L15.9091 3.65809Z" fill="#333333"/>
<path d="M25.6117 5.18154L20.8561 0.358474C20.3839 -0.113714 19.6419 -0.113714 19.2035 0.324747C19.2035 0.324747 19.2035 0.324747 19.1697 0.358474L17.0786 2.44959L23.5206 8.92532L25.6117 6.8342C26.0839 6.36201 26.0839 5.62 25.6117 5.18154Z" fill="#333333"/>
<path d="M2.77807 17.2559L0.113584 24.4061C-0.122511 25.0132 0.181039 25.6878 0.788138 25.9239C1.05796 26.0251 1.36151 26.0251 1.63133 25.9239L8.78161 23.2257L2.77807 17.2559Z" fill="#333333"/>
</g>
<defs>
<clipPath id="clip0">
<rect width="26" height="26" fill="white" transform="translate(-0.000244141)"/>
</clipPath>
</defs>
</svg>
