<svg width="26" height="26" viewBox="0 0 26 26" fill="none" xmlns="http://www.w3.org/2000/svg">
<path d="M20.0625 9.75H19.25V6.5C19.25 2.91525 16.3348 0 12.75 0C9.16525 0 6.25 2.91525 6.25 6.5V9.75H5.4375C4.09417 9.75 3 10.8431 3 12.1875V23.5625C3 24.9069 4.09417 26 5.4375 26H20.0625C21.4058 26 22.5 24.9069 22.5 23.5625V12.1875C22.5 10.8431 21.4058 9.75 20.0625 9.75ZM8.41667 6.5C8.41667 4.11017 10.3602 2.16667 12.75 2.16667C15.1398 2.16667 17.0833 4.11017 17.0833 6.5V9.75H8.41667V6.5ZM13.8333 18.1155V20.5833C13.8333 21.1813 13.3491 21.6667 12.75 21.6667C12.1509 21.6667 11.6667 21.1813 11.6667 20.5833V18.1155C11.0221 17.7396 10.5833 17.0484 10.5833 16.25C10.5833 15.0551 11.5551 14.0833 12.75 14.0833C13.9449 14.0833 14.9167 15.0551 14.9167 16.25C14.9167 17.0484 14.4779 17.7396 13.8333 18.1155Z" fill="#FFC800"/>
</svg>
