<svg width="100" height="79" viewBox="0 0 100 79" fill="none" xmlns="http://www.w3.org/2000/svg">
<path d="M96.673 12.308C94.6768 10.2089 91.9202 8.9686 88.7833 8.9686H73.0038V8.77778C73.0038 6.39251 72.0532 4.10266 70.4373 2.57609C68.8213 0.954106 66.635 0 64.2586 0H35.7414C33.27 0 31.0837 0.954106 29.4677 2.57609C27.8517 4.19807 26.9011 6.39251 26.9011 8.77778V8.9686H11.2167C8.07985 8.9686 5.32319 10.2089 3.327 12.308C1.3308 14.3116 0 17.1739 0 20.2271V67.7415C0 70.8901 1.23574 73.657 3.327 75.6606C5.32319 77.6643 8.1749 79 11.2167 79H88.7833C91.9202 79 94.6768 77.7597 96.673 75.6606C98.6692 73.657 100 70.7947 100 67.7415V20.2271C100 17.0785 98.7643 14.3116 96.673 12.308ZM95.057 67.7415H94.962C94.962 69.4589 94.2966 70.9855 93.1559 72.1304C92.0152 73.2754 90.4943 73.9432 88.7833 73.9432H11.2167C9.5057 73.9432 7.98479 73.2754 6.84411 72.1304C5.70342 70.9855 5.03802 69.4589 5.03802 67.7415V20.2271C5.03802 18.5097 5.70342 16.9831 6.84411 15.8382C7.98479 14.6932 9.5057 14.0254 11.2167 14.0254H29.5627C30.9886 14.0254 32.1293 12.8804 32.1293 11.4493V8.68237C32.1293 7.63285 32.5095 6.67874 33.1749 6.01087C33.8403 5.343 34.7909 4.96135 35.8365 4.96135H64.2586C65.3042 4.96135 66.2548 5.343 66.9202 6.01087C67.5856 6.67874 67.9658 7.63285 67.9658 8.68237V11.4493C67.9658 12.8804 69.1065 14.0254 70.5323 14.0254H88.8783C90.5894 14.0254 92.1103 14.6932 93.2509 15.8382C94.3916 16.9831 95.057 18.5097 95.057 20.2271V67.7415Z" fill="#B5B5B5"/>
<path d="M49.9998 20.5129C43.5359 20.5129 37.6423 23.1844 33.4598 27.3825C29.1823 31.676 26.6157 37.496 26.6157 43.984C26.6157 50.4719 29.2773 56.3873 33.4598 60.5854C37.7374 64.8789 43.5359 67.455 49.9998 67.455C56.4636 67.455 62.3572 64.7835 66.5397 60.5854C70.8173 56.2919 73.3838 50.4719 73.3838 43.984C73.3838 37.496 70.7222 31.5806 66.5397 27.3825C62.3572 23.1844 56.4636 20.5129 49.9998 20.5129ZM62.9275 57.0552C59.6005 60.2992 55.0378 62.3982 49.9998 62.3982C44.9617 62.3982 40.399 60.2992 37.072 57.0552C33.745 53.7158 31.7488 49.1361 31.7488 44.0794C31.7488 39.0226 33.8401 34.4429 37.072 31.1035C40.399 27.7641 44.9617 25.7605 49.9998 25.7605C55.0378 25.7605 59.6005 27.8596 62.9275 31.1035C66.2545 34.4429 68.2507 39.0226 68.2507 44.0794C68.3458 49.1361 66.2545 53.7158 62.9275 57.0552Z" fill="#B5B5B5"/>
<path d="M83.8399 29.7681C86.4124 29.7681 88.4977 27.675 88.4977 25.093C88.4977 22.511 86.4124 20.4178 83.8399 20.4178C81.2675 20.4178 79.1821 22.511 79.1821 25.093C79.1821 27.675 81.2675 29.7681 83.8399 29.7681Z" fill="#B5B5B5"/>
</svg>
