<svg width="31" height="32" viewBox="0 0 31 32" fill="none" xmlns="http://www.w3.org/2000/svg">
<g clip-path="url(#clip0)">
<path d="M15.5 31.8389C6.95278 31.8389 0 24.8861 0 16.3389C0 7.79165 6.95278 0.838867 15.5 0.838867C24.0472 0.838867 31 7.79286 31 16.3389C31 24.8849 24.0472 31.8389 15.5 31.8389ZM15.5 3.2401C8.27827 3.2401 2.40123 9.11593 2.40123 16.3389C2.40123 23.5618 8.27827 29.4376 15.5 29.4376C22.7217 29.4376 28.5988 23.5618 28.5988 16.3389C28.5988 9.11593 22.7229 3.2401 15.5 3.2401Z" fill="black"/>
<path d="M21.5032 17.6478H16.7008V22.4502C16.7008 23.113 16.1641 23.6509 15.5001 23.6509C14.8362 23.6509 14.2995 23.113 14.2995 22.4502V17.6478H9.49703C8.83307 17.6478 8.29639 17.1099 8.29639 16.4471C8.29639 15.7844 8.83307 15.2465 9.49703 15.2465H14.2995V10.444C14.2995 9.78129 14.8362 9.24339 15.5001 9.24339C16.1641 9.24339 16.7008 9.78129 16.7008 10.444V15.2465H21.5032C22.1672 15.2465 22.7039 15.7844 22.7039 16.4471C22.7039 17.1099 22.1672 17.6478 21.5032 17.6478Z" fill="black"/>
</g>
<defs>
<clipPath id="clip0">
<rect width="31" height="31" rx="15.5" transform="matrix(1 0 0 -1 0 31.8389)" fill="white"/>
</clipPath>
</defs>
</svg>
