<svg width="96" height="96" viewBox="0 0 96 96" fill="none" xmlns="http://www.w3.org/2000/svg">
<path d="M49.5003 88.897C71.2585 88.897 88.897 71.2585 88.897 49.5003C88.897 27.742 71.2585 10.1035 49.5003 10.1035C27.742 10.1035 10.1035 27.742 10.1035 49.5003C10.1035 71.2585 27.742 88.897 49.5003 88.897Z" fill="#E6E7E8"/>
<path d="M46.5003 85.1475C67.8443 85.1475 85.147 67.8448 85.147 46.5008C85.147 25.1567 67.8443 7.854 46.5003 7.854C25.1563 7.854 7.85352 25.1567 7.85352 46.5008C7.85352 67.8448 25.1563 85.1475 46.5003 85.1475Z" fill="#FA759E"/>
<path d="M46.5003 10.1025C67.4328 10.1025 84.52 26.8343 85.1185 47.625C85.129 47.25 85.147 46.8773 85.147 46.5C85.147 25.1903 67.81 7.85254 46.4995 7.85254C25.189 7.85254 7.85352 25.1903 7.85352 46.5C7.85352 46.8773 7.87152 47.25 7.88202 47.625C8.48052 26.8343 25.5678 10.1025 46.5003 10.1025Z" fill="white"/>
<path d="M31.0674 36.0368C31.0674 34.0823 31.6951 32.1015 32.9506 30.0953C34.2054 28.0883 36.0369 26.427 38.4444 25.11C40.8519 23.7938 43.6599 23.1353 46.8699 23.1353C49.8534 23.1353 52.4881 23.6858 54.7719 24.786C57.0556 25.887 58.8196 27.3848 60.0646 29.277C61.3096 31.1708 61.9321 33.228 61.9321 35.4502C61.9321 37.2 61.5774 38.733 60.8671 40.0492C60.1569 41.3662 59.3131 42.5025 58.3366 43.4595C57.3586 44.4157 55.6051 46.026 53.0746 48.2895C52.3749 48.9277 51.8139 49.4887 51.3924 49.9717C50.9709 50.4547 50.6566 50.8972 50.4504 51.2985C50.2441 51.6997 50.0851 52.101 49.9719 52.5022C49.8586 52.9035 49.6891 53.6085 49.4634 54.6165C49.0726 56.757 47.8479 57.8265 45.7906 57.8265C44.7204 57.8265 43.8196 57.4777 43.0899 56.778C42.3594 56.0782 41.9941 55.0387 41.9941 53.661C41.9941 51.9322 42.2611 50.4352 42.7966 49.17C43.3306 47.904 44.0409 46.794 44.9259 45.8363C45.8101 44.8792 47.0041 43.743 48.5064 42.426C49.8226 41.274 50.7744 40.4047 51.3616 39.8182C51.9481 39.2318 52.4424 38.5793 52.8436 37.8578C53.2449 37.1385 53.4451 36.3562 53.4451 35.5125C53.4451 33.867 52.8331 32.4773 51.6091 31.3455C50.3844 30.2145 48.8049 29.6483 46.8706 29.6483C44.6071 29.6483 42.9406 30.2198 41.8711 31.3605C40.8009 32.5028 39.8964 34.1843 39.1554 36.4073C38.4556 38.733 37.1281 39.8948 35.1736 39.8948C34.0209 39.8948 33.0489 39.4883 32.2569 38.6753C31.4634 37.863 31.0674 36.9833 31.0674 36.0368Z" fill="#FFD7E5"/>
<path d="M45.913 60.3677C43.3495 60.3677 41.272 62.4459 41.272 65.0094C41.272 67.5729 43.3502 69.6504 45.913 69.6504C48.4757 69.6504 50.554 67.5722 50.554 65.0094C50.554 62.4459 48.4757 60.3677 45.913 60.3677Z" fill="#FFD7E5"/>
<path d="M69.2007 76.8278C68.2729 77.5253 67.3002 78.1868 66.311 78.7951C65.9585 79.0118 65.8482 79.4738 66.0657 79.8271C66.2067 80.0573 66.4535 80.1841 66.7055 80.1841C66.8397 80.1841 66.9747 80.1481 67.0977 80.0731C68.1252 79.4408 69.1362 78.7523 70.1014 78.0278C70.4322 77.7788 70.4989 77.3086 70.2507 76.9778C70.0024 76.6471 69.5314 76.5811 69.2007 76.8278Z" fill="#3A2C60"/>
<path d="M46.5003 7.10352C24.7765 7.10352 7.10352 24.7765 7.10352 46.5003C7.10352 68.224 24.7765 85.897 46.5003 85.897C52.276 85.897 57.8448 84.67 63.0513 82.2505C63.4263 82.0758 63.5898 81.6295 63.415 81.2538C63.2403 80.8788 62.7955 80.7145 62.4183 80.89C57.4113 83.218 52.0555 84.3978 46.4995 84.3978C25.603 84.3978 8.60277 67.3975 8.60277 46.501C8.60277 25.6045 25.6038 8.60352 46.5003 8.60352C67.3968 8.60352 84.397 25.6038 84.397 46.5003C84.397 57.0183 80.1723 66.8005 72.5013 74.047C72.2005 74.3313 72.1863 74.806 72.4713 75.1068C72.7548 75.4068 73.2295 75.421 73.531 75.1368C81.5058 67.6053 85.897 57.4353 85.897 46.5003C85.897 24.7765 68.224 7.10352 46.5003 7.10352Z" fill="#3A2C60"/>
<path d="M53.5759 48.8495C56.0996 46.592 57.8779 44.9592 58.8619 43.9962C59.8886 42.9912 60.7856 41.7837 61.5289 40.406C62.2954 38.984 62.6839 37.3167 62.6839 35.4507C62.6839 33.0905 62.0134 30.8742 60.6926 28.8657C59.3779 26.867 57.4961 25.2672 55.0984 24.1107C52.7224 22.9662 49.9541 22.3857 46.8709 22.3857C43.5484 22.3857 40.5934 23.0817 38.0846 24.4535C35.5736 25.8275 33.6326 27.5922 32.3164 29.6982C30.9904 31.8155 30.3184 33.9485 30.3184 36.0372C30.3184 37.1825 30.7901 38.246 31.7194 39.1992C32.6539 40.1592 33.8164 40.646 35.1731 40.646C36.7646 40.646 38.8729 39.9477 39.8674 36.6455C40.5694 34.5365 41.4274 32.9322 42.4181 31.874C43.3361 30.8952 44.8339 30.3987 46.8709 30.3987C48.6251 30.3987 50.0089 30.8885 51.1001 31.8957C52.1741 32.8895 52.6954 34.0722 52.6954 35.5122C52.6954 36.2345 52.5296 36.8825 52.1891 37.4937C51.8254 38.1485 51.3679 38.7522 50.8316 39.2885C50.2526 39.8675 49.3039 40.7345 48.0124 41.8632C46.4906 43.1982 45.2666 44.3645 44.3756 45.329C43.4336 46.3475 42.6709 47.5422 42.1069 48.8787C41.5346 50.2287 41.2451 51.8383 41.2451 53.6623C41.2451 55.247 41.6921 56.4785 42.5719 57.3208C43.4411 58.1548 44.5249 58.5785 45.7916 58.5785C48.2201 58.5785 49.7449 57.2555 50.1964 54.7827C50.4169 53.798 50.5849 53.1005 50.6944 52.7083C50.7941 52.3557 50.9366 51.998 51.1189 51.6418C51.2959 51.2975 51.5779 50.9023 51.9574 50.4673C52.3624 50.0023 52.9091 49.4563 53.5759 48.8495ZM50.8271 49.4802C50.3614 50.0142 50.0201 50.4972 49.7839 50.9578C49.5559 51.401 49.3766 51.8525 49.2499 52.301C49.1321 52.7203 48.9574 53.444 48.7264 54.4835C48.3979 56.2782 47.4926 57.0777 45.7909 57.0777C44.9119 57.0777 44.1986 56.8033 43.6091 56.237C43.0279 55.6805 42.7451 54.8382 42.7451 53.6615C42.7451 52.04 42.9949 50.627 43.4884 49.4615C43.9849 48.2855 44.6546 47.2362 45.4774 46.346C46.3331 45.4197 47.5189 44.291 49.0001 42.9905C50.3156 41.84 51.2891 40.9512 51.8914 40.349C52.5259 39.7145 53.0666 38.999 53.4986 38.2235C53.9606 37.3955 54.1946 36.4835 54.1946 35.5122C54.1946 33.6575 53.4956 32.0705 52.1171 30.794C50.7544 29.5362 48.9889 28.8987 46.8701 28.8987C44.4019 28.8987 42.5359 29.555 41.3231 30.8487C40.1824 32.066 39.2134 33.857 38.4356 36.1925C37.6384 38.84 36.1916 39.146 35.1716 39.146C34.2206 39.146 33.4429 38.8212 32.7919 38.153C32.1356 37.4802 31.8161 36.7887 31.8161 36.038C31.8161 34.235 32.4116 32.3697 33.5854 30.494C34.7644 28.6077 36.5201 27.0185 38.8024 25.769C41.0876 24.5195 43.8011 23.8857 46.8686 23.8857C49.7246 23.8857 52.2739 24.416 54.4451 25.4622C56.5939 26.4995 58.2739 27.9215 59.4371 29.6907C60.5951 31.451 61.1816 33.389 61.1816 35.4515C61.1816 37.0662 60.8531 38.495 60.2066 39.695C59.5346 40.9392 58.7291 42.026 57.8111 42.9252C56.8429 43.8732 55.0811 45.4902 52.5686 47.7372C51.8576 48.386 51.2704 48.9725 50.8271 49.4802Z" fill="#3A2C60"/>
<path d="M45.913 59.6177C42.94 59.6177 40.522 62.0364 40.522 65.0087C40.522 67.9809 42.9407 70.4004 45.913 70.4004C48.8852 70.4004 51.304 67.9809 51.304 65.0087C51.304 62.0364 48.886 59.6177 45.913 59.6177ZM45.913 68.9012C43.7672 68.9012 42.022 67.1552 42.022 65.0094C42.022 62.8637 43.7672 61.1184 45.913 61.1184C48.0587 61.1184 49.804 62.8637 49.804 65.0094C49.804 67.1552 48.0587 68.9012 45.913 68.9012Z" fill="#3A2C60"/>
</svg>
