<svg width="30" height="30" viewBox="0 0 30 30" fill="none" xmlns="http://www.w3.org/2000/svg">
<path d="M23.5679 12.8572C21.4416 12.8572 19.5678 11.8074 18.3971 10.2119L12.5473 13.1378C12.7284 13.7313 12.8548 14.3482 12.8548 15C12.8548 15.6519 12.7284 16.2689 12.5473 16.8622L18.3971 19.7881C19.5678 18.1926 21.4416 17.1429 23.5679 17.1429C27.1124 17.1429 29.9957 20.0266 29.9957 23.5715C29.9957 27.1164 27.1125 30 23.5679 30C20.0233 30 17.14 27.1163 17.14 23.5714C17.14 22.9196 17.2665 22.3027 17.4476 21.7094L11.5976 18.7833C10.4269 20.3788 8.55312 21.4285 6.42684 21.4285C2.88232 21.4285 -0.000976562 18.5449 -0.000976562 15C-0.000976562 11.455 2.88232 8.57139 6.4269 8.57139C8.55318 8.57139 10.4269 9.62112 11.5976 11.2166L17.4475 8.29058C17.2663 7.69735 17.14 7.08041 17.14 6.42851C17.14 2.88361 20.0233 -6.10352e-05 23.5679 -6.10352e-05C27.1125 -6.10352e-05 29.9957 2.88361 29.9957 6.42851C29.9957 9.97342 27.1124 12.8572 23.5679 12.8572ZM23.5679 27.8571C25.9313 27.8571 27.8531 25.934 27.8531 23.5714C27.8531 21.2088 25.9312 19.2857 23.5679 19.2857C21.2045 19.2857 19.2826 21.2089 19.2826 23.5714C19.2826 25.934 21.2045 27.8571 23.5679 27.8571ZM6.4269 10.7143C4.06349 10.7143 2.14167 12.6374 2.14167 15C2.14167 17.3626 4.06356 19.2857 6.4269 19.2857C8.7903 19.2857 10.7121 17.3625 10.7121 15C10.7121 12.6374 8.7903 10.7143 6.4269 10.7143ZM23.5679 2.14288C21.2045 2.14288 19.2826 4.06603 19.2826 6.42858C19.2826 8.79112 21.2045 10.7143 23.5679 10.7143C25.9313 10.7143 27.8531 8.79112 27.8531 6.42858C27.8531 4.06597 25.9313 2.14288 23.5679 2.14288Z" fill="#333333"/>
</svg>
