<svg width="31" height="30" viewBox="0 0 31 30" fill="none" xmlns="http://www.w3.org/2000/svg">
<g clip-path="url(#clip0)">
<path d="M24.5396 12.8572C22.4133 12.8572 20.5395 11.8074 19.3688 10.2119L13.519 13.1378C13.7001 13.7313 13.8265 14.3482 13.8265 15C13.8265 15.6519 13.7001 16.2689 13.519 16.8622L19.3688 19.7881C20.5395 18.1926 22.4133 17.1429 24.5396 17.1429C28.0841 17.1429 30.9674 20.0266 30.9674 23.5715C30.9674 27.1164 28.0841 30 24.5396 30C20.995 30 18.1117 27.1163 18.1117 23.5714C18.1117 22.9196 18.2381 22.3027 18.4193 21.7094L12.5693 18.7833C11.3985 20.3788 9.5248 21.4285 7.39851 21.4285C3.854 21.4285 0.970703 18.5449 0.970703 15C0.970703 11.455 3.854 8.57139 7.39858 8.57139C9.52486 8.57139 11.3986 9.62112 12.5693 11.2166L18.4191 8.29058C18.238 7.69735 18.1117 7.08041 18.1117 6.42851C18.1117 2.88361 20.995 -6.10352e-05 24.5396 -6.10352e-05C28.0841 -6.10352e-05 30.9674 2.88361 30.9674 6.42851C30.9674 9.97342 28.0841 12.8572 24.5396 12.8572ZM24.5396 27.8571C26.903 27.8571 28.8248 25.934 28.8248 23.5714C28.8248 21.2088 26.9029 19.2857 24.5396 19.2857C22.1761 19.2857 20.2543 21.2089 20.2543 23.5714C20.2543 25.934 22.1762 27.8571 24.5396 27.8571ZM7.39858 10.7143C5.03517 10.7143 3.11335 12.6374 3.11335 15C3.11335 17.3626 5.03524 19.2857 7.39858 19.2857C9.76198 19.2857 11.6838 17.3625 11.6838 15C11.6838 12.6374 9.76198 10.7143 7.39858 10.7143ZM24.5396 2.14288C22.1761 2.14288 20.2543 4.06603 20.2543 6.42858C20.2543 8.79112 22.1762 10.7143 24.5396 10.7143C26.903 10.7143 28.8248 8.79112 28.8248 6.42858C28.8248 4.06597 26.903 2.14288 24.5396 2.14288Z" fill="#FFC800"/>
</g>
<defs>
<clipPath id="clip0">
<rect width="29.9967" height="30" fill="white" transform="matrix(1 0 0 -1 0.970703 30)"/>
</clipPath>
</defs>
</svg>
