<svg width="41" height="37" viewBox="0 0 41 37" fill="none" xmlns="http://www.w3.org/2000/svg">
<path d="M20.119 0C9.02473 0 0 8.29848 0 18.5C0 28.7015 9.02473 37 20.119 37C31.2134 37 40.2381 28.7001 40.2381 18.5C40.2381 8.29992 31.2134 0 20.119 0ZM20.119 34.134C10.7452 34.134 3.1168 27.1209 3.1168 18.5C3.1168 9.87907 10.7452 2.86598 20.119 2.86598C29.4944 2.86598 37.1213 9.87907 37.1213 18.5C37.1213 27.1209 29.4929 34.134 20.119 34.134Z" fill="#333333"/>
<path d="M29.017 20.4775L21.2249 13.3125C20.6171 12.7565 19.6354 12.7565 19.0276 13.3125L11.2355 20.4775C10.7353 21.0134 10.7353 21.8059 11.2355 22.3418C11.795 22.9423 12.7799 23.0124 13.4329 22.498L20.1185 16.3505L26.8196 22.4981C27.4274 23.0541 28.4092 23.0541 29.017 22.4981C29.6217 21.9392 29.6217 21.0363 29.017 20.4775Z" fill="#333333"/>
</svg>
