<svg width="26" height="30" viewBox="0 0 26 30" fill="none" xmlns="http://www.w3.org/2000/svg">
<path d="M26 30.0003H22.8714C22.8714 24.8721 18.4445 20.7014 12.9992 20.7014C7.55394 20.7014 3.12857 24.8736 3.12857 30.0003H0C0 23.1941 5.83322 17.6616 13.0008 17.6616C20.1668 17.6616 26 23.1941 26 30.0003Z" fill="#010002"/>
<path d="M13.0009 16.6734C8.27207 16.6734 4.42236 12.9314 4.42236 8.33671C4.4208 3.7405 8.27051 0 13.0009 0C17.7329 0 21.5826 3.73898 21.5826 8.33671C21.5826 12.9344 17.7329 16.6734 13.0009 16.6734ZM13.0009 3.03982C9.99435 3.03982 7.54937 5.41544 7.54937 8.33671C7.54937 11.258 9.99435 13.6336 13.0009 13.6336C16.009 13.6336 18.454 11.258 18.454 8.33671C18.454 5.41544 16.0059 3.03982 13.0009 3.03982Z" fill="#010002"/>
</svg>
